<svg xmlns="http://www.w3.org/2000/svg" fill="none" viewBox="0 0 312 46">
<path stroke-linejoin="round" stroke-miterlimit="10" stroke-width="7.99196" stroke="#F07F65" d="M19.6538 3L30.7699 14.1222L41.8921 3"></path>
<path stroke-linejoin="round" stroke-miterlimit="10" stroke-width="7.99196" stroke="#F07F65" d="M41.8921 42.9999L30.7699 31.8838L19.6538 42.9999"></path>
<path stroke-linejoin="round" stroke-miterlimit="10" stroke-width="7.99196" stroke="#F07F65" d="M15.1222 11.8691L4 23.0096L15.1222 34.1075"></path>
<path stroke-linejoin="round" stroke-miterlimit="10" stroke-width="7.99196" stroke="#F07F65" d="M46.4116 34.1058L57.5338 23.008L46.4664 11.9224"></path>
<path fill="white" d="M94.4334 32.2841C94.4334 33.2587 94.4699 34.081 94.5491 34.7388C94.6283 35.3966 94.7623 36.1215 94.945 36.9133H88.9332C88.5921 35.8839 88.4215 34.3673 88.4215 32.3633V30.9807C88.4215 29.5554 88.0317 28.4955 87.2521 27.7951C86.4724 27.0946 85.4004 26.7474 84.0299 26.7474H78.6089V36.9194H72.5544V10.6062H86.442C89.2621 10.6062 91.4183 11.2518 92.9106 12.5431C94.4029 13.8344 95.146 15.5887 95.146 17.8058C95.146 19.6026 94.6344 21.1071 93.605 22.3375C92.5756 23.5618 91.2539 24.3475 89.6458 24.6947C91.1747 25.0663 92.3563 25.6815 93.1847 26.5525C94.0131 27.4235 94.4334 28.7453 94.4334 30.5116V32.2841ZM85.0958 22.4289C86.4176 22.4289 87.3739 22.1182 87.9647 21.4969C88.5555 20.8757 88.854 19.9315 88.854 18.6707C88.854 16.4048 87.5993 15.2658 85.0958 15.2658H78.6089V22.4289H85.0958Z"></path>
<path fill="white" d="M111.567 32.8195C112.304 32.3566 112.822 31.7293 113.108 30.9374H118.724C118.408 32.8135 117.439 34.3788 115.819 35.6458C114.199 36.9127 111.762 37.5462 108.516 37.5462C104.904 37.5462 102.224 36.5533 100.482 34.5616C98.7397 32.5698 97.8687 30.042 97.8687 26.9844C97.8687 25.0048 98.2585 23.2262 99.0381 21.6425C99.8178 20.0589 101.006 18.8041 102.601 17.8844C104.197 16.9585 106.171 16.5017 108.516 16.5017C112.024 16.5017 114.607 17.4763 116.27 19.4315C117.932 21.3867 118.761 23.8901 118.761 26.9478C118.761 27.7153 118.736 28.2391 118.682 28.5315H103.606C103.765 30.3283 104.27 31.6074 105.129 32.3688C105.988 33.1363 107.151 33.5139 108.631 33.5139C109.85 33.5078 110.824 33.2825 111.567 32.8195ZM105.214 21.4842C104.41 22.1724 103.887 23.3297 103.649 24.9682H113.188C113.084 23.4637 112.652 22.3369 111.902 21.5877C111.153 20.8385 110.051 20.4609 108.601 20.4609C107.145 20.4548 106.018 20.7959 105.214 21.4842Z"></path>
<path fill="white" d="M127.867 36.9124H122.013V9.21655H127.867V36.9124Z"></path>
<path fill="white" d="M147.455 17.1271H153.309V36.9107H147.455V33.9444C146.054 36.3443 143.746 37.5442 140.53 37.5442C137.472 37.5442 135.218 36.5636 133.781 34.5962C132.343 32.6288 131.625 30.1071 131.625 27.0189C131.625 23.8821 132.343 21.3421 133.781 19.3991C135.218 17.4621 137.466 16.4937 140.53 16.4937C143.776 16.4937 146.085 17.6814 147.455 20.0569V17.1271ZM146.207 31.5689C147.035 30.6431 147.455 29.1264 147.455 27.0189C147.455 24.9114 147.047 23.3948 146.231 22.4689C145.415 21.5431 144.117 21.0863 142.351 21.0863C140.585 21.0863 139.324 21.5431 138.575 22.4507C137.825 23.3582 137.448 24.8871 137.448 27.0189C137.448 29.1325 137.825 30.6492 138.575 31.5689C139.324 32.4948 140.585 32.9516 142.351 32.9516C144.093 32.9577 145.378 32.4948 146.207 31.5689Z"></path>
<path fill="white" d="M166.965 36.9131C164.248 36.9131 162.354 36.3406 161.288 35.1894C160.222 34.0443 159.686 32.2413 159.686 29.7866V21.5638H156.086V18.7558L160.161 17.093L162.573 12.4211H165.54V17.1295H171.235V21.5638H165.54V32.2474H170.686V36.9192H166.965V36.9131Z"></path>
<path fill="white" d="M180.853 14.5147H174.482V10.5981H180.853V14.5147ZM180.615 36.9113H174.762V17.1277H180.615V36.9113Z"></path>
<path fill="white" d="M188.801 36.1038C187.163 35.1414 185.963 33.8684 185.201 32.2847C184.434 30.7011 184.056 28.9347 184.056 26.9795C184.056 25.0547 184.44 23.3005 185.201 21.7168C185.969 20.1332 187.169 18.8662 188.801 17.916C190.433 16.9658 192.504 16.4907 195.014 16.4907C197.517 16.4907 199.594 16.9719 201.245 17.9343C202.896 18.8967 204.096 20.1697 204.845 21.7534C205.594 23.337 205.972 25.0791 205.972 26.9795C205.972 28.9042 205.594 30.6645 204.845 32.2604C204.096 33.8562 202.89 35.1353 201.245 36.0977C199.594 37.0601 197.517 37.5413 195.014 37.5413C192.51 37.5474 190.44 37.0662 188.801 36.1038ZM191.14 31.6147C191.932 32.5101 193.223 32.9608 195.02 32.9608C196.841 32.9608 198.145 32.5101 198.936 31.6147C199.728 30.7193 200.124 29.1905 200.124 27.0221C200.124 24.8598 199.728 23.3309 198.936 22.4295C198.145 21.5341 196.841 21.0833 195.02 21.0833C193.223 21.0833 191.932 21.5341 191.14 22.4295C190.348 23.3248 189.952 24.8598 189.952 27.0221C189.952 29.1844 190.348 30.7132 191.14 31.6147Z"></path>
<path fill="white" d="M229.721 24.7653V36.9107H223.867V25.6728C223.867 24.1196 223.551 22.9867 222.917 22.2923C222.284 21.5918 221.346 21.2446 220.109 21.2446C218.501 21.2446 217.289 21.7867 216.467 22.8649C215.65 23.9491 215.242 25.6363 215.242 27.9326V36.9168H209.389V17.1271H215.242V21.0071C216.668 17.9981 219.043 16.4937 222.363 16.4937C227.266 16.4937 229.721 19.2529 229.721 24.7653Z"></path>
<path fill="white" d="M248.871 17.1271H254.724V36.9107H248.871V33.9444C247.47 36.3443 245.161 37.5442 241.945 37.5442C238.888 37.5442 236.634 36.5636 235.196 34.5962C233.759 32.6288 233.04 30.1071 233.04 27.0189C233.04 23.8821 233.759 21.3421 235.196 19.3991C236.634 17.4621 238.882 16.4937 241.945 16.4937C245.192 16.4937 247.5 17.6814 248.871 20.0569V17.1271ZM247.622 31.5689C248.451 30.6431 248.871 29.1264 248.871 27.0189C248.871 24.9114 248.463 23.3948 247.647 22.4689C246.83 21.5431 245.533 21.0863 243.767 21.0863C242 21.0863 240.739 21.5431 239.99 22.4507C239.241 23.3582 238.863 24.8871 238.863 27.0189C238.863 29.1325 239.241 30.6492 239.99 31.5689C240.739 32.4948 242 32.9516 243.767 32.9516C245.509 32.9577 246.794 32.4948 247.622 31.5689Z"></path>
<path fill="white" d="M265.213 36.9124H259.359V9.21655H265.213V36.9124Z"></path>
<path fill="white" d="M293.823 36.9113H290.497L287.927 30.1869H274.868L272.297 36.9113H269.014L278.985 10.5981H283.852L293.823 36.9113ZM281.397 12.9736L275.854 27.5373H286.934L281.397 12.9736Z"></path>
<path fill="white" d="M311.31 10.5981V13.2477H305.731V34.2617H311.31V36.9113H296.905V34.2617H302.484V13.2477H296.905V10.5981H311.31Z"></path>
</svg>
